<?xml version="1.0" encoding="UTF-8" standalone="no"?><svg xmlns="http://www.w3.org/2000/svg" xmlns:xlink="http://www.w3.org/1999/xlink" contentScriptType="text/ecmascript" fill="#000000" width="6000.7" zoomAndPan="magnify" contentStyleType="text/css" viewBox="-0.0 0.0 6000.7 5377.2" height="5377.2" preserveAspectRatio="xMidYMid meet" version="1"><g><g fill="#c4f1fa" id="change1_1"><path d="M2604,0c2.8,5.3,8.5,5.9,13.3,7.8c52.2,20.7,102.4,44.9,147.7,78.4c32.4,24,56,54.4,68.8,93.2 c9.6,29,20,57.8,24,88.3c2.3,17.1,5.2,34.2,5.7,51.4c0.9,32.6,1,65.3-0.1,97.9c-0.7,20.5-4,40.9-6.1,61.4 c-1.5,14.5-2.4,29.1-5.1,43.5c-5.4,29.4-10,58.9-15.1,88.3c-10.2,59.6-24.1,118.4-37.4,177.4c-15.2,67.4-31.6,134.5-46.1,202 c-8.7,40.2-17.4,80.5-22.2,121.5c-3.1,26.4-7.6,52.5-10.6,78.9c-1.4,12.5-0.8,25.3-1.2,37.9c-0.3,10,0.6,20-2.2,29.8 c-0.7,2.5-1,5.4-0.4,7.9c3.9,16.4,1.6,33.2,3.2,49.7c4.2,44.6,13.2,87.9,32,129c24.2,52.8,57.9,98.6,101,137.4 c29.8,26.8,62.6,49.4,97.7,68.9c37.3,20.8,76.5,37.6,116.8,51.1c35.2,11.8,71.2,21.5,107.7,29.3c44.2,9.4,88.5,18,133.2,24.2 c34.2,4.8,68.2,10.5,102.4,15c27.6,3.6,55.5,5.7,83.2,9.1c26.4,3.2,52.6,7.3,78.9,10.8c24.4,3.2,48.9,5.3,73.1,9.2 c42,6.6,83.8,13.8,125.6,21.5c41.8,7.7,83.1,18,123.9,30c94.8,27.8,183.2,68.4,261.6,129.1c53.8,41.6,98,91.8,132,150.8 c-3.8,4-7.5,1.3-10.7-0.7c-31.8-19.5-64.7-36.8-99-51.7c-35.5-15.4-71.9-28.3-109-38.6c-62.7-17.4-126.6-29.1-191.2-37.4 c-12.5-1.6-25.1-2.5-37.6-4.1c-25-3.3-49.9-7.3-75.2-7.4c-2.7,0-5.5,0.3-8-0.4c-15-4.5-30.4-3-45.6-3.5c-4.7-0.1-9.6,0.6-14-0.5 c-17.1-4.5-34.4-2.9-51.7-3.4c-4.7-0.2-9.5,0.6-14-0.4c-21.7-4.9-43.8-2.9-65.7-3.6c-6.7-0.2-13.6,0.7-19.9-1 c-10.5-2.9-21.1-2.5-31.7-2.7c-12.7-0.3-25.6,1.2-37.9-1.1c-15.3-2.9-30.5-2.6-45.7-3c-7.3-0.2-15,1-21.9-0.8 c-15.2-3.8-30.4-2.7-45.7-3.3c-5.3-0.2-10.8-0.3-15.8-1.6c-6.6-1.8-13.2-2.3-19.8-2c-23.4,1.1-46.2-5.9-69.6-4.6 c-1.3,0.1-2.7-0.1-4-0.5c-16.7-5.1-34.2-4.3-51.3-6.3c-23.1-2.8-45.9-7.1-68.9-10.1c-23.6-3-46.8-9.3-70-15 c-69.4-17.3-136.1-41-198.1-77.5c-52.5-30.9-100.1-68-144.4-109.4c-40-37.3-75.3-78.9-107.7-122.9c-31.3-42.4-59-86.8-79-135.9 c-19.3-47.3-28.5-96.8-31.9-147.3c-2.7-39.2,1.3-78.2,6.8-117.1c6.3-44.8,16.6-88.7,26.8-132.5c13.6-58.2,29.1-115.9,40.4-174.5 c6.5-33.8,13.4-67.6,18.1-101.8c1.8-13.2,1.7-26.7,4.5-39.5c4.2-19,1.6-38.5,6.6-57.3c-0.1-58.5,2.8-116.9-7.1-175.1 c-5.5-32.1-11.1-63.9-19.6-95.4c-16.9-62.7-41.7-122-72.6-179c-8.6-15.8-17.7-31.3-27.9-46.1c-20.7-30.2-43-59.1-66.9-86.8 c-3.1-3.6-6.3-6.9-11.1-8c-1.3-0.3-2.6-0.4-4-0.4c-12-0.1-24-0.1-36,0c-1,0-2,1.3-3.4,2.2c0.8,1.6,1.3,3.6,2.6,4.8 c20.9,20.5,40.2,42.6,57.6,66.1c12.7,17.1,25.6,34.1,36.9,52c19.5,31,37.4,62.9,51,97c12.3,30.9,25.4,61.4,33.6,93.8 c8.1,31.5,16,63,20,95.4c3,24.4,7.1,48.6,7.1,73.2c0,32.6-0.1,65.3-0.2,97.9c0,5.3,0.6,10.9-0.8,15.9c-5.1,18.1-4,36.9-6.2,55.3 c-3.6,30.3-8.3,60.5-14.2,90.4c-10.8,55.3-23.2,110.3-36.3,165.2c-14.7,62-31.2,123.5-39.5,186.8c-3,23-6.9,45.9-6.8,69.2 c0.1,24.6,0.2,49,3.1,73.6c2.6,22.5,5.4,44.9,10.6,66.7c13.4,56.1,35.9,108.4,67.3,157c24.9,38.6,52.5,75.1,81.9,110.5 c16.2,19.5,33.8,37.8,51.5,55.6c25.2,25.5,51.9,49.5,80.3,71.7c32.1,25.1,65.4,48.1,100.9,67.8c54.3,30.2,111.9,52.5,172,68.5 c27.6,7.3,55.1,14.6,83.4,19.1c16.4,2.6,32.8,5.2,49,8.2c24.8,4.7,49.9,7.6,74.9,10c21.7,2.1,43.5,6.7,65.5,5.1 c2-0.1,4.1-0.1,6,0.5c13,4.2,26.4,2.9,39.7,3.3c4.7,0.1,9.6-0.6,14,0.5c17.7,4.6,35.7,3,53.7,3.6c4.7,0.2,9.6-0.5,13.9,0.9 c11.8,3.7,23.8,2.5,35.7,2.9c12,0.4,24.3-0.9,35.9,1.3c12,2.2,23.8,2.4,35.7,2.7c12,0.3,24.3-1,35.9,1.2c12.6,2.4,25.1,3,37.7,2.7 c35.3-0.9,70.3,6.3,105.6,4.6c2.6-0.1,5.4,0.2,7.9,1.1c7.8,2.8,15.8,2.7,23.7,2.3c21.4-1,42.2,5.8,63.6,4.6 c1.3-0.1,2.6,0.5,3.9,0.7c17.7,2.3,35.5,4.6,53.2,6.8c14.5,1.8,29,3.2,43.4,5.5c17.7,2.9,35.1,7.4,52.8,10 c38.9,5.7,76.7,15.9,114.3,26.8c49.4,14.4,96.4,34.5,141.7,58.9c31.7,17,61.9,36.3,90.8,57.7c8.2,6.1,14.7,13.2,20.6,21.2 c2.1,7,4,14.1,6.5,20.9c11.6,31.9,20.8,64.5,27.3,97.8c5.4,27.4,9.6,54.9,13.2,82.6c2.7,21.1,1.8,42.5,6.4,63.4 c1.5,77.9,1.6,155.8-4.1,233.5c-0.1,1.3-0.1,2.7-0.4,4c-5.2,22.2-2.5,45-6.6,67.4c-3.3,18.2-3.1,37-5.2,55.5 c-3.3,29-7.5,57.9-10.9,86.9c-4.5,38.2-8,76.6-13.1,114.8c-1.8,13.2-2.7,26.4-4.2,39.6c-3.4,29-8.1,57.9-10.4,87 c-2.3,29.1-6.7,58.2-7.7,87.3c-1.3,36.6-5.3,73-5.3,109.6c0.1,66.5-0.3,133,7.5,199.3c3.8,32.4,8,64.7,14,96.6 c14,74,35.5,146,66.4,214.8c34.4,76.4,78.7,146.6,134.6,209.1c45.9,51.3,97.2,96.8,153.7,136.1c67.5,46.9,140.1,84.7,216.1,115.7 c62.9,25.7,127.4,46.5,193.3,63.1c65.1,16.5,131,28.8,197.5,38c12.5,1.7,25.1,3,37.6,4.7c24.3,3.2,48.6,7.6,73,10.3 c31,3.3,62.2,6.2,93.4,7.8c39.2,2,78.5,2.2,117.7,3.7c57.9,2.1,115.8,1.3,173.7-2.4c29.2-1.9,58.5-1.2,87.8-3.3 c28.5-2.1,57-4.4,85.6-5.4c9.4,0.1,18.9,0.2,28.3,0.3c0,174.6,0,349.1,0,523.7c-23.6,6.6-47.1,13.9-70.9,19.8 c-58,14.4-115.8,29.2-174.3,41.7c-59,12.6-117.9,25.6-177.5,35.3c-43.2,7.1-86.1,15.2-129.7,20c-12.5,1.4-25,2.7-37.5,4.5 c-18.4,2.5-36.8,5.3-55.3,6.4c-25.9,1.5-51.5,6.3-77.6,4.7c-2-0.1-4.1,0.1-5.9,0.7c-9,3.3-18.4,2.5-27.7,2.7 c-20,0.3-40.2-1.4-59.9,1.2c-18,2.4-35.8,2.6-53.7,2.7c-38.7,0.2-77.3,0-116-0.1c-3.3,0-6.8,0.5-10-0.3c-21-5.1-42.4-2.7-63.7-3.4 c-10-0.4-20.3,1.2-29.9-0.9c-24.9-5.3-50.3-2.8-75.4-6.3c-25.5-3.6-51.4-5.1-77.1-7.8c-13.9-1.4-27.6-4.2-41.5-5.1 c-15.2-1-30.6-2.1-45.4-5.4c-9.9-2.2-19.8-1.9-29.6-3.9c-19.5-3.9-39.2-7-58.7-10.4c-28.1-4.9-56.2-9.7-84.2-14.8 c-32-5.8-63.6-13.7-95.3-20.5c-48.8-10.4-96.9-23.5-144.4-38.2c-81.4-25.2-161.4-54.3-239.4-88.6 c-51.8-22.8-103.2-46.3-152.5-74.3c-39.9-22.7-78.7-47.1-116.2-73.7c-45.8-32.4-88.1-68.6-127.5-108.4 c-31-31.3-58.6-65.2-82.4-102.4c-29.6-46.4-51.3-96.1-65-149.4c-7.1-27.6-12.7-55.5-16.7-83.8c-4.2-29.7-7.8-59.2-7.3-89.2 c0.1-9.3-0.8-18.4-2.2-27.7c-2.6-16.4-2.6-33.3,0-49.8c1.4-9.3,2.7-18.5,2.2-27.7c-1.8-35.3,4.6-70.3,4.6-105.6c0-1.3,0-2.7,0.3-4 c5.7-18,3.9-36.9,6.6-55.3c4.3-29.5,8.8-59,14.4-88.3c8.6-44.3,19.2-88.1,28.9-132.2c3-13.6,6.9-27.1,8.9-40.8 c5.2-36.1,14.1-71.5,17.5-107.9c2.6-27.7,6.8-55.3,7.2-83.2c0.2-15.2-1.8-30.6,2.6-45.7c0.5-1.8,0.4-4.1-0.2-5.9 c-3.7-10.4-2.6-21.2-2.2-31.7c1.2-30-3.7-59.7-4.7-89.5c0-1.3-0.2-2.7-0.4-4c-3.8-21.5-7.1-43.2-11.5-64.6 c-7.1-35.3-18.1-69.5-31.5-102.8c-12.7-31.5-28.1-61.7-44.8-91.3c-22-39-47.8-75.4-77.3-108.7c-34.4-38.9-73-73.7-116.5-102.6 c-21.6-14.4-43.1-28.8-65.8-41.5c-30.9-17.2-62.2-33.7-94.6-47.5c-55-23.6-111.7-42.8-169.2-59.7c-65-19.2-131-33.9-197.7-45.6 c-18.9-3.3-37.8-7.1-57-8.9c-14.5-1.3-28.7-4.8-43.1-7c-16.4-2.5-32.8-4.9-49.2-7c-15.1-1.9-30.3-3.5-45.5-5.1 c-15.8-1.7-31.9-2-47.5-5.2c-19-3.9-38.3-3.2-57.3-6.3c-11-1.7-22.1-4.2-33.5-4.7c-16.5-0.8-33.1-2.8-49.5-4.8 c-15.8-1.9-31.4-4.8-47.2-6.9c-23-3.1-46.1-5.5-69-9.2c-26.2-4.2-52.1-10.2-78.2-14.4c-40.6-6.6-80.9-14.9-120.9-24.4 c-84.2-19.9-167-43.8-247.8-75c-51-19.7-101.2-40.6-149.1-67c-46.1-25.4-90.9-52.4-131.3-86.6c-35.3-29.9-66-63.6-93-100.9 c-21.5-29.7-38.7-61.9-54-95.2c-17.1-37-30.4-75.2-40.9-114.4c-7.7-28.8-13.8-58-17.3-87.8c-3.2-27-7.3-53.9-7.1-81.2 c0.2-27.3-0.5-54.6,0.4-81.9c0.6-19.2,2.3-38.4,4.8-57.5c2.9-23,7.6-45.7,10.6-68.7c5.2-39.5,14.4-78.3,23.2-117 c7-31.1,15.8-61.7,23.9-92.6c5.8-21.8,11.7-43.6,17.7-65.4c9.1-32.6,18.8-65.1,27.6-97.8c15-55.8,29.1-111.7,38.5-168.8 c4.3-26.1,9.9-52.2,9.7-78.9c0-4-0.2-8.2,1-11.9c2.8-8.5,2.4-17.1,2.6-25.7c1-36.6-1.5-72.9-7.1-109.2 c-4.1-26.5-10.8-52.1-19.9-76.9c-21.4-58.3-54.2-109-101.6-150.3c-23.7-20.7-49.2-38.5-75.9-54.8c-31.3-19-64.5-34.6-98-49.3 c-47.6-20.9-97-36.9-146.7-51.5c-46.5-13.6-93.6-25.1-141.2-34.4c-42.9-8.4-85.7-17.5-129.2-23c-11.1-1.4-22.3-3.2-33.5-4.6 c-17.1-2.1-34.1-5.8-51.2-6.4c-21.9-0.8-43.5-6.4-65.6-4.8c-1.3,0.1-2.7,0.1-4-0.3c-13.6-4.3-27.7-3-41.6-3.4 c-5.3-0.2-10.9,0.7-16-0.5c-21.1-5.1-42.4-2.7-63.7-3.6c-7.3-0.3-14.9,0.3-21.9-1.3c-8.6-2.1-17.2-2.7-25.8-2.2 c-30.7,1.7-61-5-91.6-4.5c-1.3,0-2.7-0.1-4-0.4c-22.8-4.9-46.3-3.7-69.2-7.4c-12.4-2-25.1-2.7-37.4-5.5 c-6.1-1.4-13.6-0.5-18.4-6.4c0.1-3.3,0.2-6.6,0.2-9.9c0-124,0-248.1,0-372.1c0-3.3-0.3-6.6-0.5-9.9C990.7,0,1797.3,0,2604,0z"/><path d="M5024,5377c-1.7-1-3.2-2.6-5-2.9c-3.2-0.6-6.6-0.6-9.9-0.7c-59.9-1.6-119.9-1.9-179.7-5.3 c-33.1-1.9-66.6-0.7-99.5-6.3c-3.3-0.6-6.6-0.4-10-0.6c-27.3-0.9-54.3-4.7-81.4-7.2c-15.9-1.5-31.7-3.9-47.5-5.3 c-16.5-1.5-32.9-4.3-49.3-6.5c-12.5-1.6-25.1-3-37.6-4.7c-34.9-4.6-69.6-10-104.4-15.5c-43.3-6.8-86.3-15.4-129.1-24.5 c-42.2-9-84.4-18.5-125.9-30.5c-37-10.7-74.2-21.2-110.8-33.2c-51.2-16.8-101.6-35.7-151.2-56.9c-36.8-15.7-72.9-32.6-108.4-50.9 c-71.2-36.6-138.8-79.1-202.4-127.7c-46.1-35.2-89.3-73.9-128.6-116.6c-52.9-57.5-98.9-120.1-137.5-188.2 c-23.4-41.2-43.2-84.1-60.6-128c-17.4-43.9-31.5-89-42.4-135c-9.5-40-17.6-80.3-23.4-121.2c-4.1-28.9-5.6-58.2-10.6-87 c-0.2-1.3-0.2-2.7-0.3-4c-1.3-43.2-6-86.3-4.9-129.6c0.4-14.5-1.1-29.1-1.1-43.7c0-14,1.7-28,0.8-41.9 c-1.7-25.9,1.1-51.7,0.6-77.6c-0.5-25.3,0.2-50.6,0.4-75.9c0.2-26,0.2-52,0.5-77.9c0-5.3,0-10.7,1.1-15.9 c1.9-9.3,1.2-18.4,0.1-27.7c-1.9-16.5-2.1-33.2,0.2-49.8c1.5-11.3,1.4-22.4-0.2-33.7c-1.3-9.2-1.3-18.6-1.5-27.9 c-0.4-19.3,1-38.8-1.1-57.9c-2.9-26.4-1.8-53.1-6.3-79.4c-2.9-17-3-34.4-5.2-51.5c-2.5-19.7-5.3-39.5-9.2-59 c-9.6-48.3-21.2-96-38.1-142.4c-26.6-73.2-63.2-140.7-112.5-201.2c-46.7-57.3-102.7-104-166-142.1 c-72.3-43.5-149.7-74.8-230.7-98.1c-46-13.3-92.6-24.3-139.5-33.4c-38.4-7.4-77.1-13.7-116.1-17.8c-27.7-2.9-55.2-7.6-82.9-10.9 c-18.5-2.2-37.1-3.1-55.6-4.9c-20.5-2-40.9-4.6-61.4-6.6c-19.2-1.9-38.4-3.2-57.6-4.9c-26.5-2.4-52.9-4.8-79.4-7.2 c-1.3-0.1-2.7-0.4-4-0.4c-22.7,1-45-4.3-67.6-5c-15.9-0.5-31.8-2.8-47.6-4.6c-20.5-2.2-40.9-4.6-61.4-7 c-13.9-1.6-27.8-2.9-41.6-4.9c-33.5-4.9-67.1-9.3-100.4-15.5c-49-9.1-97.8-18.8-145.8-32.5c-42.3-12.1-83.8-26.4-123.9-44.3 c-51.2-22.8-100.1-49.9-143.8-85.4c-14.5-11.7-29-23.4-42.7-36c-18.8-17.1-34.3-37.2-49.5-57.4c-39.3-52.1-61.1-111.3-71.3-175.6 c-7.8-49-7.6-98-6.8-147.3c4.9-20.2,2.7-41,6.1-61.4c2.7-15.6,2.7-31.7,5.2-47.5c3.4-21.6,5.9-43.4,9.4-65.1 c4.7-29.5,9.9-58.9,15-88.3c4.4-25.5,9-51,13.2-76.5c5.1-30.8,10.1-61.6,14.9-92.4c5.1-32.8,10.1-65.6,14.8-98.4 c1.9-13.1,3-26.5,4-39.6c2.3-30.5,5.5-60.9,5.6-91.6c0-23.9,0.4-47.8-0.8-71.6c-2.5-49.9-9.2-99.2-26.9-146.4 c-7-18.8-15.8-36.5-28.2-52.5c-5.5-7.1-11.7-12.5-19.6-16.4c-29.9-15.1-61.5-25.3-94.2-32.1c-22.7-4.7-45.9-6.7-69-9.3 c-34-3.9-68-4.5-101.7-1.9c-29.1,2.2-58.6,0.1-87.5,6.2c-1.3,0.3-2.7,0.2-4,0.3c-26.6,1.6-53.4,1.4-79.6,5.2 c-29.8,4.4-59.8,2.5-89.6,5.8c-24.9,2.7-50.5,3.2-75.7-1.5c-5.8-1.1-12-0.6-17.9-1c-55-3.3-108-14.7-157.9-38.5 c-27.7-13.2-52.7-30.6-76.4-50.5c-23.8-19.9-42.5-43.9-61.7-67.7c-6.9-8.5-10-17.9-9.9-29.3c0.3-158.5,0.2-317.1,0.3-475.6 c0-3.3,0.2-6.7,0.3-10c13.8,1.7,27.6,3.2,41.4,5.2c19,2.8,37.9,6.9,57.3,6.7c4,0,8.2-0.4,11.9,0.8c11.1,3.6,22.4,2.8,33.7,3.1 c4.7,0.1,9.5-0.6,14,0.4c21.7,5.1,43.7,2.9,65.6,3.7c6,0.2,12.1,0.1,17.8,1.5c7.3,1.8,14.5,1.9,21.8,2c17.3,0.2,34.9-1.4,51.9,1.2 c18,2.7,35.8,2.1,53.7,3.3c19.9,1.4,39.6,4.9,59.6,4.3c0.7,0,1.3,0.1,2,0.3c18,5.5,36.9,3,55.3,6.6c24,4.6,48.7,5.7,73,9.5 c28.2,4.4,56.2,9.7,84.1,15.4c33.2,6.7,66.4,13.3,99.1,21.8c47.6,12.3,94.8,26,141.2,42.2c54.9,19.1,107.7,42.6,157.5,72.5 c36.1,21.6,69.4,46.4,96.7,79c25.1,29.9,45,62.4,58,99.3c15.4,43.6,23.7,88.3,23.8,134.7c0.1,37.3,0.5,74.6-5.1,111.5 c-5.6,37.3-12,74.7-20.6,111.4c-13.9,60.1-29.8,119.8-47.1,179.1c-11,37.6-21.4,75.4-31.6,113.2c-9.7,35.9-18,72.1-25.3,108.5 c-7.3,36.4-14.5,72.8-19.1,109.7c-1.5,11.8-2.7,23.7-4.3,35.5c-3.7,26.3-6.6,52.7-6.8,79.2c-0.2,29.2-0.7,58.3,2.7,87.7 c2.8,24.3,4.8,48.7,8.4,73.1c5.2,34.9,13.8,69,23.7,102.7c17,57.7,40.9,112.4,72.1,164c18.6,30.8,39.9,59.8,64.1,86.3 c18.4,20.1,37.8,39.2,59.1,56.6c41.4,33.8,85.8,63,132.8,88.1c31.7,16.9,63.6,33.6,97.1,46.9c26.6,10.6,52.7,22.4,79.6,31.9 c82.1,29.1,165.1,54.9,250.4,73.5c49.3,10.8,98.7,20.6,148.3,29.4c39.1,7,78.5,12.9,118,17.5c11.8,1.4,23.7,2.7,35.6,4.2 c17.1,2.1,34.1,5.7,51.2,6.6c12,0.7,23.5,4.5,35.6,4.4c17.3-0.2,34.3,3.8,51.5,5.1c29.7,2.3,59.2,7.2,88.8,10.9 c23.7,3,47.5,5.2,71.1,8.8c29.5,4.4,58.7,10.5,88.2,14.8c44.1,6.4,87.3,16.8,130.5,27.1c48.5,11.6,96,26.5,143,43.2 c50.8,18,100.6,38.3,148.3,63.7c46.5,24.9,90.6,53,131.1,87c39.5,33.2,74.2,70.4,104,112.5c27.8,39.3,49.6,82,69.5,125.6 c11.6,25.4,20.1,52,27.4,79c9.8,36,15.3,72.8,18.6,109.7c2.2,24.4,4.5,48.9,5.2,73.5c1.1,41.3-3.2,82.4-4.4,123.6 c-0.1,2.7-0.4,5.3-0.8,7.9c-2.2,15.1-4.5,30.1-6.7,45.2c-3.1,21-5.2,42.2-9.5,62.9c-9.1,44.2-19.7,88-28.9,132.2 c-8,38.3-14.4,76.9-22.3,115.2c-2.6,12.5-2.8,25-4.9,37.5c-3.1,19-6.8,37.9-6.7,57.2c0,3.3,0.4,6.8-0.5,10 c-4.9,17-2.8,34.4-3.6,51.6c-0.3,7.3-0.1,14.8-1.6,21.8c-1.6,7.3-2.1,14.5-1.9,21.8c0.9,50.5-2.1,101,2.9,151.6 c3.1,31.1,6.4,61.9,12.3,92.6c11.3,59.1,29.6,115.6,57.1,169.4c24.5,47.8,55.3,91,91.1,130.5c25.9,28.6,53.1,56.1,83.2,80.5 c26.4,21.3,52.7,42.7,80.5,62.1c53.6,37.3,109.4,70.9,168,100c20.3,10,40.8,19.6,61.5,28.8c27.3,12.2,54.6,24.5,82.4,35.8 c28.9,11.8,58.3,22.4,87.5,33.5c52.2,19.9,105.6,36.4,159.3,51.7c44.7,12.8,89.7,24.4,135.2,33.7c44.8,9.2,89.5,19.1,134.8,25.8 c28.8,4.2,57.4,10.6,86.3,14.2c11.8,1.5,23.5,4.2,35.5,5c14.5,1,29,3.2,43.5,5c17.1,2.1,34.1,5.7,51.2,6.4 c21.9,0.8,43.5,6.4,65.6,4.8c1.3-0.1,2.7-0.1,4,0.3c13.6,4.3,27.7,3,41.6,3.4c5.3,0.2,10.9-0.7,16,0.5c21.1,5.1,42.4,2.9,63.7,3.5 c12.7,0.4,25.6-1.3,37.9,1c15.3,2.8,30.5,2.6,45.7,2.7c31.3,0.2,62.7,0,94-0.1c4.7,0,9.6,0.6,13.9-0.7c11.1-3.3,22.5-3.2,33.7-2.6 c38.7,1.8,77-5,115.6-4.6c2.6,0,5.4-0.1,7.9-0.7c20.8-5,42.3-2.9,63.3-6.6c16.9-3,34.4-2.9,51.5-5.2c24.3-3.2,48.4-8.1,72.7-10.7 c36.3-3.9,72.2-10.9,108-17.7c61.9-11.8,123.7-24,185-38.8c57.4-13.8,115-27.1,171.9-43.1c8.8-2.5,17.7-6.4,27.3-4.8 c0,84,0,167.9,0,251.9c-3.3,0.2-6.8-0.2-9.9,0.7c-44.3,11.5-89.1,20.9-134.1,29.6c-33.9,6.6-67.9,12-101.9,18 c-21.6,3.8-43.3,6.5-65.1,8.9c-24.4,2.7-48.7,6-73.3,7.2c-6.6,0.3-13.2,1.1-19.8,1.9c-16.4,2-32.9,3.5-49.2,6.5 c-17.2,3.2-34.7,1.4-51.6,4.3c-27,4.7-54.4,2.1-81.4,6.2c-20.9,3.1-42.4,2-63.6,3.9c-34.4,3.1-69,3.6-103.6,4.6 c-26,0.8-51.9,1.3-77.9,0.7c-38.6-0.8-76.9,5.4-115.6,4.2c-3.4-0.1-6.6,0.7-9.1,3.2C5037.3,5377,5030.7,5377,5024,5377z"/></g><g fill="#1e5b82" id="change2_1"><path d="M6000,5025.2c-9.6-1.6-18.5,2.3-27.3,4.8c-56.9,16.1-114.5,29.3-171.9,43.1c-61.3,14.8-123.1,27-185,38.8 c-35.8,6.8-71.6,13.8-108,17.7c-24.4,2.6-48.4,7.5-72.7,10.7c-17.1,2.2-34.5,2.2-51.5,5.2c-21,3.7-42.5,1.6-63.3,6.6 c-2.6,0.6-5.3,0.7-7.9,0.7c-38.6-0.4-76.9,6.4-115.6,4.6c-11.2-0.5-22.6-0.6-33.7,2.6c-4.3,1.3-9.3,0.7-13.9,0.7 c-31.3,0.1-62.7,0.2-94,0.1c-15.3-0.1-30.4,0.2-45.7-2.7c-12.3-2.3-25.3-0.6-37.9-1c-21.2-0.6-42.6,1.6-63.7-3.5 c-5.1-1.2-10.6-0.4-16-0.5c-13.9-0.4-28,0.9-41.6-3.4c-1.2-0.4-2.7-0.4-4-0.3c-22.1,1.5-43.6-4-65.6-4.8 c-17.1-0.7-34.2-4.2-51.2-6.4c-14.5-1.8-28.9-4-43.5-5c-12-0.9-23.6-3.6-35.5-5c-28.9-3.6-57.4-10-86.3-14.2 c-45.3-6.7-90-16.6-134.8-25.8c-45.5-9.3-90.5-20.9-135.2-33.7c-53.7-15.4-107.1-31.8-159.3-51.7c-29.2-11.1-58.6-21.8-87.5-33.5 c-27.7-11.3-55-23.5-82.4-35.8c-20.6-9.2-41.2-18.8-61.5-28.8c-58.5-29-114.4-62.6-168-100c-27.8-19.4-54.2-40.7-80.5-62.1 c-30.2-24.4-57.4-51.9-83.2-80.5c-35.8-39.5-66.6-82.6-91.1-130.5c-27.5-53.8-45.9-110.3-57.1-169.4c-5.8-30.6-9.2-61.5-12.3-92.6 c-5.1-50.6-2-101.1-2.9-151.6c-0.1-7.3,0.4-14.5,1.9-21.8c1.5-7.1,1.3-14.5,1.6-21.8c0.8-17.2-1.3-34.6,3.6-51.6 c0.9-3.1,0.5-6.6,0.5-10c-0.1-19.4,3.6-38.3,6.7-57.2c2.1-12.4,2.3-25,4.9-37.5c8-38.3,14.4-76.9,22.3-115.2 c9.2-44.2,19.8-88,28.9-132.2c4.3-20.7,6.4-41.9,9.5-62.9c2.2-15.1,4.5-30.1,6.7-45.2c0.4-2.6,0.7-5.3,0.8-7.9 c1.2-41.2,5.5-82.2,4.4-123.6c-0.7-24.6-3-49.1-5.2-73.5c-3.3-36.9-8.8-73.7-18.6-109.7c-7.3-27-15.8-53.7-27.4-79 c-19.9-43.6-41.6-86.3-69.5-125.6c-29.8-42.1-64.5-79.3-104-112.5c-40.5-34-84.5-62.1-131.1-87c-47.7-25.5-97.5-45.7-148.3-63.7 c-47-16.7-94.5-31.6-143-43.2c-43.2-10.3-86.4-20.7-130.5-27.1c-29.5-4.3-58.7-10.3-88.2-14.8c-23.6-3.6-47.4-5.8-71.1-8.8 c-29.6-3.7-59.1-8.6-88.8-10.9c-17.2-1.3-34.2-5.3-51.5-5.1c-12,0.1-23.5-3.7-35.6-4.4c-17.1-0.9-34.1-4.5-51.2-6.6 c-11.8-1.5-23.7-2.8-35.6-4.2c-39.5-4.6-78.9-10.6-118-17.5c-49.6-8.8-99-18.6-148.3-29.4c-85.3-18.6-168.3-44.4-250.4-73.5 c-26.9-9.5-53-21.3-79.6-31.9c-33.5-13.3-65.4-30-97.1-46.9c-47-25.1-91.4-54.3-132.8-88.1c-21.3-17.4-40.7-36.5-59.1-56.6 c-24.3-26.5-45.5-55.5-64.1-86.3c-31.2-51.5-55.1-106.3-72.1-164c-9.9-33.7-18.5-67.8-23.7-102.7c-3.6-24.3-5.7-48.7-8.4-73.1 c-3.3-29.3-2.8-58.4-2.7-87.7c0.1-26.5,3.1-52.9,6.8-79.2c1.6-11.8,2.9-23.7,4.3-35.5c4.6-36.9,11.8-73.3,19.1-109.7 c7.3-36.4,15.6-72.7,25.3-108.5c10.3-37.8,20.6-75.6,31.6-113.2c17.3-59.3,33.2-119,47.1-179.1c8.5-36.8,14.9-74.1,20.6-111.4 c5.6-36.9,5.2-74.2,5.1-111.5c-0.1-46.4-8.4-91-23.8-134.7c-13-36.9-32.9-69.4-58-99.3c-27.3-32.6-60.7-57.4-96.7-79 c-49.9-29.8-102.6-53.3-157.5-72.5c-46.5-16.2-93.7-29.9-141.2-42.2c-32.7-8.5-66-15-99.1-21.8c-27.9-5.7-56-10.9-84.1-15.4 c-24.2-3.8-48.9-4.8-73-9.5c-18.4-3.6-37.3-1.1-55.3-6.6c-0.6-0.2-1.3-0.3-2-0.3c-20,0.6-39.7-2.9-59.6-4.3 c-17.9-1.2-35.7-0.6-53.7-3.3c-17-2.6-34.6-0.9-51.9-1.2c-7.3-0.1-14.5-0.2-21.8-2c-5.7-1.4-11.9-1.3-17.8-1.5 c-21.9-0.8-43.9,1.3-65.6-3.7c-4.4-1-9.3-0.3-14-0.4c-11.3-0.3-22.6,0.5-33.7-3.1c-3.7-1.2-7.9-0.9-11.9-0.8 c-19.4,0.2-38.2-3.9-57.3-6.7c-13.8-2-27.6-3.5-41.4-5.2c-14.8-2.9-29.8-5.3-44.5-8.9c-21.1-5.2-42.3-10.3-62.9-17.1 c-20.6-6.9-40.6-15.8-60.8-23.9c-5.5-2.2-10.3-6.1-16.6-6.2c0-14.7,0-29.3,0-44c5.5-0.4,10.3,1.3,15.2,3.6 c12.6,5.9,25.1,11.8,38,16.9c17.2,6.8,34.4,13.6,52.1,18.9c18.3,5.5,37.2,8.5,55.6,13.7c7.9,2.3,15.5,2.8,23.4,3 c4.8,5.9,12.3,4.9,18.4,6.4c12.2,2.9,24.9,3.5,37.4,5.5c22.9,3.7,46.4,2.5,69.2,7.4c1.3,0.3,2.7,0.4,4,0.4 c30.6-0.5,60.9,6.2,91.6,4.5c8.6-0.5,17.2,0.2,25.8,2.2c7,1.7,14.6,1,21.9,1.3c21.2,0.9,42.6-1.5,63.7,3.6 c5.1,1.2,10.6,0.3,16,0.5c13.9,0.4,28-0.9,41.6,3.4c1.2,0.4,2.7,0.4,4,0.3c22.1-1.6,43.6,4,65.6,4.8c17.1,0.6,34.2,4.3,51.2,6.4 c11.2,1.4,22.3,3.2,33.5,4.6c43.5,5.5,86.3,14.6,129.2,23c47.6,9.3,94.7,20.8,141.2,34.4c49.7,14.6,99.1,30.5,146.7,51.5 c33.6,14.7,66.7,30.3,98,49.3c26.7,16.2,52.2,34.1,75.9,54.8c47.4,41.2,80.2,92,101.6,150.3c9.1,24.8,15.8,50.5,19.9,76.9 c5.7,36.3,8.1,72.6,7.1,109.2c-0.2,8.6,0.2,17.3-2.6,25.7c-1.2,3.7-1.1,7.9-1,11.9c0.1,26.7-5.4,52.8-9.7,78.9 c-9.3,57-23.5,113-38.5,168.8c-8.8,32.7-18.5,65.2-27.6,97.8c-6.1,21.7-12,43.5-17.7,65.4c-8.1,30.8-16.9,61.5-23.9,92.6 c-8.8,38.8-18,77.5-23.2,117c-3,23-7.7,45.7-10.6,68.7c-2.4,19.1-4.2,38.3-4.8,57.5c-0.8,27.3-0.1,54.6-0.4,81.9 c-0.2,27.3,4,54.2,7.1,81.2c3.5,29.8,9.6,59,17.3,87.8c10.5,39.2,23.8,77.4,40.9,114.4c15.4,33.3,32.5,65.5,54,95.2 c27,37.3,57.7,71,93,100.9c40.4,34.2,85.2,61.2,131.3,86.6c47.9,26.4,98.1,47.3,149.1,67c80.8,31.2,163.7,55.1,247.8,75 c40,9.5,80.3,17.8,120.9,24.4c26.2,4.3,52.1,10.2,78.2,14.4c22.9,3.7,46,6,69,9.2c15.8,2.2,31.4,5,47.2,6.9c16.5,2,33,4,49.5,4.8 c11.4,0.6,22.5,3,33.5,4.7c19.1,3,38.4,2.4,57.3,6.3c15.5,3.2,31.6,3.5,47.5,5.2c15.2,1.6,30.4,3.2,45.5,5.1 c16.4,2.1,32.8,4.5,49.2,7c14.4,2.2,28.7,5.7,43.1,7c19.2,1.8,38.1,5.6,57,8.9c66.7,11.7,132.7,26.4,197.7,45.6 c57.5,17,114.1,36.2,169.2,59.7c32.4,13.9,63.7,30.3,94.6,47.5c22.7,12.7,44.2,27.1,65.8,41.5c43.5,28.9,82.1,63.7,116.5,102.6 c29.5,33.4,55.3,69.7,77.3,108.7c16.7,29.6,32.1,59.8,44.8,91.3c13.4,33.3,24.4,67.5,31.5,102.8c4.3,21.4,7.7,43.1,11.5,64.6 c0.2,1.3,0.4,2.6,0.4,4c1.1,29.9,5.9,59.5,4.7,89.5c-0.4,10.5-1.5,21.3,2.2,31.7c0.6,1.8,0.7,4.1,0.2,5.9 c-4.4,15-2.4,30.5-2.6,45.7c-0.4,27.9-4.6,55.5-7.2,83.2c-3.4,36.4-12.3,71.9-17.5,107.9c-2,13.7-5.9,27.2-8.9,40.8 c-9.7,44-20.4,87.9-28.9,132.2c-5.7,29.2-10.1,58.8-14.4,88.3c-2.7,18.4-0.9,37.3-6.6,55.3c-0.4,1.2-0.3,2.6-0.3,4 c0,35.2-6.4,70.2-4.6,105.6c0.5,9.3-0.8,18.4-2.2,27.7c-2.5,16.4-2.6,33.3,0,49.8c1.5,9.3,2.4,18.5,2.2,27.7 c-0.4,30,3.2,59.5,7.3,89.2c4,28.3,9.5,56.2,16.7,83.8c13.8,53.2,35.4,103,65,149.4c23.8,37.1,51.3,71,82.4,102.4 c39.4,39.8,81.7,76,127.5,108.4c37.5,26.6,76.3,51,116.2,73.7c49.3,28,100.7,51.5,152.5,74.3c78,34.3,158,63.4,239.4,88.6 c47.5,14.7,95.6,27.8,144.4,38.2c31.8,6.8,63.3,14.6,95.3,20.5c28,5.1,56.1,9.9,84.2,14.8c19.6,3.4,39.3,6.4,58.7,10.4 c9.8,2,19.7,1.7,29.6,3.9c14.8,3.3,30.2,4.4,45.4,5.4c13.9,0.9,27.6,3.7,41.5,5.1c25.7,2.6,51.6,4.2,77.1,7.8 c25.1,3.5,50.5,1,75.4,6.3c9.6,2.1,19.9,0.5,29.9,0.9c21.2,0.8,42.6-1.7,63.7,3.4c3.2,0.8,6.6,0.3,10,0.3 c38.7,0.1,77.3,0.3,116,0.1c17.9-0.1,35.7-0.3,53.7-2.7c19.7-2.6,39.9-0.9,59.9-1.2c9.3-0.1,18.7,0.7,27.7-2.7 c1.8-0.7,4-0.9,5.9-0.7c26,1.5,51.7-3.2,77.6-4.7c18.5-1.1,36.9-3.8,55.3-6.4c12.5-1.7,25.1-3.1,37.5-4.5 c43.6-4.8,86.5-12.9,129.7-20c59.6-9.8,118.5-22.7,177.5-35.3c58.5-12.5,116.3-27.3,174.3-41.7c23.8-5.9,47.3-13.1,70.9-19.8 C6000,4995.9,6000,5010.5,6000,5025.2z"/><path d="M6000,4457.5c-9.4-0.1-18.9-0.2-28.3-0.3c-4.7-5.6-11.1-3.6-16.8-3.6c-43.3-0.2-86.7-0.1-130-0.2 c-6.6,0-13.4,0.9-19.8-1.6c-6.4-2.6-13.1-2.1-19.7-2.3c-27.8-1-55.9,2.9-83.5-3.9c-1.3-0.3-2.7-0.1-4-0.1 c-15.3-0.2-30.7,1.3-45.5-3.8c-22,0.8-43.7-2.5-65.5-3.8c-17.9-1.1-35.4-6.3-53.4-4.9c-10.7-4.8-22.7-1.5-33.4-4.5 c-13.6-3.9-27.5-3.5-41.2-6.4c-20.6-4.4-42-5.6-62.8-9.3c-33.2-6-66.5-12.1-99.2-19.9c-51.6-12.4-103.1-25.3-153.6-41.7 c-17.1-5.5-33.8-12.1-50.7-17.9c-45.4-15.5-88.9-35.4-132.2-55.8c-20.4-9.6-40.2-20.7-59.9-31.9c-19.6-11.1-39.1-22.7-58.1-34.8 c-40.9-26.1-81.1-53.1-117.2-85.7c-20.9-12.4-33.5-34.2-54-47.1c-1.1-0.7-1.8-2-2.4-3.1c-3.7-7.4-10-12.4-15.7-18 c-17.6-17.2-33-36.3-48-55.8c-41.1-53.1-71.3-112.1-93.3-175.2c-17-48.9-28.1-99.4-35.7-150.6c-1.1-7.2-3.6-14.3-3.7-21.5 c0-20-6.6-39.4-4.5-59.5c0.2-1.9-0.2-4.1-1-5.9c-3.3-7.6-2.7-15.7-2.8-23.6c0-50,0-99.9,0-149.9c0-5.3-0.8-11,0.8-15.9 c3.5-10.4,3.8-21.1,3-31.6c-0.9-11,4.6-20.7,4.3-31.5c-0.5-15.3,3.6-30.2,5-45.4c1.8-19.7,7.7-38.9,10.4-58.5 c3.6-27,9.9-53.3,15.3-79.9c2.9-14.3,6.3-28.4,9-42.7c3.8-20.1,7.3-40.3,10.7-60.5c3.3-19.6,7.5-39.1,9.1-58.8 c1.4-16.5,6.5-32.7,4.7-49.4c5.3-14.2,3.3-28.9,3.7-43.5c0.1-4.7-0.7-9.7,0.8-13.9c4.1-11.7,3.1-23.7,3.1-35.6 c0.1-27.3,0-54.6,0-81.9c0-4.7,0.6-9.6-0.6-13.9c-5.7-20.7-3.2-42.2-6.8-63.1c-2.5-14.9-3.9-30.2-5.6-45.3 c-3.4-29.5-9.3-58.7-15.1-87.9c-7.2-36.4-15.4-72.5-26.8-107.9c-11.1-34.4-27-66.5-43.9-98.2c-16.3-30.6-35.4-59.3-60.2-83.9 c-4.2-4.2-8.4-8.6-12-13.3c-8.8-11.4-24-24.8-38.7-33.3c-5.9-7.9-12.4-15.1-20.6-21.2c-28.9-21.4-59.1-40.7-90.8-57.7 c-45.3-24.3-92.3-44.4-141.7-58.9c-37.6-11-75.4-21.2-114.3-26.8c-17.7-2.6-35.1-7.1-52.8-10c-14.4-2.4-28.9-3.7-43.4-5.5 c-17.8-2.2-35.5-4.5-53.2-6.8c-1.3-0.2-2.6-0.7-3.9-0.7c-21.4,1.1-42.2-5.6-63.6-4.6c-7.9,0.4-16,0.4-23.7-2.3 c-2.5-0.9-5.3-1.2-7.9-1.1c-35.3,1.7-70.3-5.5-105.6-4.6c-12.6,0.3-25.1-0.3-37.7-2.7c-11.6-2.2-23.9-0.9-35.9-1.2 c-11.9-0.3-23.8-0.5-35.7-2.7c-11.6-2.2-23.9-0.9-35.9-1.3c-11.9-0.4-23.9,0.8-35.7-2.9c-4.3-1.4-9.3-0.7-13.9-0.9 c-17.9-0.6-35.9,1-53.7-3.6c-4.4-1.1-9.3-0.3-14-0.5c-13.3-0.4-26.7,0.9-39.7-3.3c-1.8-0.6-4-0.6-6-0.5c-22.1,1.6-43.8-3-65.5-5.1 c-25-2.4-50-5.3-74.9-10c-16.2-3.1-32.7-5.7-49-8.2c-28.3-4.4-55.8-11.7-83.4-19.1c-60.1-15.9-117.7-38.2-172-68.5 c-35.5-19.7-68.8-42.7-100.9-67.8c-28.4-22.2-55.1-46.3-80.3-71.7c-17.7-17.9-35.3-36.1-51.5-55.6 c-29.3-35.4-56.9-71.9-81.9-110.5c-31.3-48.5-53.9-100.9-67.3-157c-5.2-21.9-8-44.3-10.6-66.7c-2.9-24.6-3-49.1-3.1-73.6 c-0.1-23.3,3.8-46.2,6.8-69.2c8.3-63.3,24.8-124.9,39.5-186.8c13-54.8,25.5-109.9,36.3-165.2c5.8-29.8,10.5-60,14.2-90.4 c2.2-18.4,1.2-37.2,6.2-55.3c1.4-5,0.7-10.6,0.8-15.9c0.1-32.6,0.2-65.3,0.2-97.9c0-24.6-4.1-48.8-7.1-73.2 c-4-32.4-11.9-63.8-20-95.4c-8.3-32.4-21.3-62.9-33.6-93.8c-13.6-34.1-31.6-66-51-97c-11.3-18-24.2-35-36.9-52 c-17.5-23.5-36.7-45.6-57.6-66.1c-1.3-1.2-1.8-3.2-2.6-4.8c1.4-1,2.4-2.2,3.4-2.2c12-0.1,24,0,36,0c1.3,0,2.7,0.1,4,0.4 c4.8,1.1,8,4.4,11.1,8c23.9,27.7,46.2,56.7,66.9,86.8c10.1,14.8,19.3,30.3,27.9,46.1c30.9,56.9,55.7,116.3,72.6,179 c8.5,31.5,14.1,63.3,19.6,95.4c9.9,58.2,7.1,116.7,7.1,175.1c-5.1,18.7-2.4,38.3-6.6,57.3c-2.8,12.8-2.7,26.3-4.5,39.5 c-4.7,34.2-11.5,68-18.1,101.8c-11.3,58.7-26.8,116.4-40.4,174.5c-10.2,43.9-20.6,87.8-26.8,132.5c-5.5,39-9.4,78-6.8,117.1 c3.4,50.5,12.6,99.9,31.9,147.3c20,49.1,47.7,93.5,79,135.9c32.5,44,67.8,85.5,107.7,122.9c44.3,41.4,91.9,78.5,144.4,109.4 c62,36.5,128.7,60.2,198.1,77.5c23.2,5.8,46.4,12,70,15c23,2.9,45.8,7.3,68.9,10.1c17.1,2.1,34.6,1.3,51.3,6.3 c1.3,0.4,2.6,0.6,4,0.5c23.4-1.3,46.2,5.8,69.6,4.6c6.6-0.3,13.2,0.2,19.8,2c5,1.4,10.5,1.4,15.8,1.6c15.3,0.6,30.5-0.5,45.7,3.3 c6.9,1.7,14.6,0.5,21.9,0.8c15.3,0.5,30.4,0.2,45.7,3c12.3,2.3,25.2,0.8,37.9,1.1c10.6,0.3,21.2-0.2,31.7,2.7 c6.3,1.7,13.2,0.8,19.9,1c21.9,0.7,43.9-1.2,65.7,3.6c4.5,1,9.3,0.2,14,0.4c17.3,0.6,34.6-1.1,51.7,3.4c4.4,1.2,9.3,0.4,14,0.5 c15.3,0.5,30.7-1,45.6,3.5c2.5,0.7,5.3,0.4,8,0.4c25.3,0.1,50.2,4.1,75.2,7.4c12.5,1.7,25,2.5,37.6,4.1 c64.6,8.3,128.5,20,191.2,37.4c37.1,10.3,73.5,23.3,109,38.6c34.3,14.9,67.2,32.2,99,51.7c3.2,2,6.9,4.7,10.7,0.7 c13.8,14.6,30.9,25.1,46.6,37.2c18.5,14.2,36.6,28.6,52.7,45.5c5.5,5.8,11.1,11.5,17,17c30.4,28.4,53.4,62.4,75,97.6 c31,50.4,49.5,105.7,64.9,162.2c6.8,24.9,13.3,50,16.9,75.5c2.8,19.7,7.3,39,9.7,58.7c1.6,13.8,4.6,27.4,6.8,41.1 c0.6,3.9,0.9,7.9,1,11.9c0.3,9.9-0.4,19.9,3.2,29.6c1.5,4.2,0.8,9.2,0.9,13.9c0.2,9.9-0.4,19.8,3,29.6c1.7,4.8,0.9,10.5,0.9,15.9 c0.1,30,0.2,60,0,89.9c-0.1,13.2,1.2,26.5-3.2,39.6c-1.6,4.8-0.6,10.6-0.7,15.9c-0.3,11.9-0.9,23.7-2.9,35.6 c-2.3,14.3-3.3,28.9-4.8,43.4c-2.5,23-5.4,46-9.4,68.8c-4.5,25.4-9.9,50.6-14.8,75.9c-5.9,29.9-11.9,59.7-17.6,89.6 c-3.7,19.5-7,39-10.4,58.6c-2.6,15.6-5.1,31.3-7.4,47c-0.6,3.9-0.6,8-0.7,11.9c-0.1,7.3,0.3,14.7-2.7,21.6 c-0.8,1.8-1.2,3.9-1.1,5.8c2.1,26.7-4.6,52.9-4.3,79.5c0.3,30,0,60,0.1,89.9c0.1,11.9-1.2,24,3.3,35.6c0.9,2.4,0.9,5.3,0.6,7.9 c-2.1,18.8,2.3,37.2,4.8,55.4c8.8,63,19.7,125.7,42.2,185.6c5.6,14.9,11.9,29.5,18.2,44.2c7.5,17.7,15.8,35,25.7,51.7 c15.2,25.8,31.8,50.5,50.8,73.7c17.3,21,34,42.7,53.9,61.2c28.1,26.2,56.8,51.9,87.9,74.8c34.3,25.3,69.7,48.8,106.3,70.2 c40.7,23.8,82.5,45.9,126.2,64.3c19.6,8.3,38.8,17.4,58.7,24.8c36.7,13.7,73.8,26.5,111.6,37c25.6,7.1,51,14.8,76.8,21.1 c28.3,6.9,56.8,12.7,85.4,18.5c27.9,5.6,55.7,12,83.9,15c23.7,2.6,46.8,9.8,70.9,9.3c16.4,6.3,34.5,1.5,51.1,7.3 c4.2,1.5,9.3,0.5,13.9,0.6c7.3,0.1,14.5,0.1,21.7,2.4c4.9,1.6,10.5,1.3,15.8,1.5c8.6,0.3,17.1,0.1,25.7,2.8 c5.5,1.8,11.9,1,17.8,1.2c15.2,0.5,30.6-1.5,45.6,3.5c3.6,1.2,7.9,0.4,11.9,0.4c14.7,0.1,29.3,0,44,0.1c8,0.1,15.8,0.1,23.7,2.4 c6.2,1.8,13.2,1.4,19.8,1.4c64.7,0.1,129.3,0.1,194,0.1C6000,4428.2,6000,4442.9,6000,4457.5z"/></g></g></svg>