<?xml version="1.0" encoding="UTF-8" standalone="no"?><svg xmlns="http://www.w3.org/2000/svg" xmlns:xlink="http://www.w3.org/1999/xlink" contentScriptType="text/ecmascript" fill="#000000" width="156.7" zoomAndPan="magnify" contentStyleType="text/css" viewBox="132.8 63.6 156.7 299.0" height="299" preserveAspectRatio="xMidYMid meet" version="1"><g id="change1_1"><path fill="#b0b1d9" d="M288.287,208.615c1.146-13.847-6.592-28.031-18.615-34.88c-1.486-0.846-3.036-1.545-4.626-2.17 c-0.624-0.245-1.118-0.063-1.437,0.307c-0.151,0.031-0.304,0.077-0.46,0.16c-12.602,6.74-26.731,9.868-40.892,11.001 c-14.152,1.132-28.551,0.656-42.685-0.551c-7.917-0.676-15.927-2.056-22.959-5.941c-0.677-0.374-1.315-0.197-1.747,0.213 c-0.292-0.025-0.608,0.05-0.927,0.266c-6.349,4.305-11.36,10.454-14.318,17.533c-3.126,7.48-3.836,15.414-2.348,23.366 c1.671,8.932,5.577,17.286,7.075,26.258c1.384,8.287,0.143,16.714-1.683,24.827c-3.557,15.807-9.91,32.413-5.073,48.663 c4.72,15.859,18.485,26.993,33.36,32.947c29.19,11.684,69.196,11.988,97.414-2.99c6.951-3.69,12.992-9.188,16.395-16.368 c3.598-7.59,4.691-16.259,4.594-24.586c-0.195-16.609-5.228-32.632-7.403-48.999c-1.063-8.004-1.478-16.208-0.081-24.198 C283.349,225.014,287.574,217.224,288.287,208.615z"/></g><g id="change2_1"><path fill="#ced7ef" d="M271.806,273.703c-2.313-9.1-3.651-18.259-3.952-27.648c-0.148-4.628-0.228-9.285,0.323-13.891 c0.527-4.4,2.168-8.41,3.462-12.612c0.979-3.181,2.184-7.419,0.704-10.613c-1.054-2.274-3.459-2.816-5.971-2.639 c-2.303,0.162-4.611,0.693-6.878,1.106c-2.406,0.438-4.808,0.901-7.213,1.344c-4.998,0.922-10.018,1.775-15.087,2.191 c-10.169,0.834-20.367,1.429-30.574,1.366c-5.048-0.031-10.137-0.114-15.153-0.716c-4.773-0.573-9.475-1.608-14.135-2.773 c-4.61-1.153-9.176-2.582-13.823-3.573c-1.234-0.263-2.83-0.428-3.888-0.265c0.032-0.005-0.476,0.113-0.659,0.162 c-0.129,0.034-0.254,0.081-0.38,0.127c-0.019,0.007-0.025,0.008-0.038,0.013c-0.185,0.094-0.36,0.201-0.536,0.311 c-0.035,0.022-0.04,0.025-0.062,0.039c-0.066,0.057-0.135,0.115-0.192,0.177c-0.067,0.073-0.268,0.314-0.309,0.348 c-0.104,0.157-0.206,0.316-0.294,0.482c-0.038,0.071-0.145,0.308-0.191,0.403c-0.03,0.1-0.13,0.391-0.15,0.461 c-0.36,1.239-0.373,1.684-0.407,2.969c-0.066,2.539,0.234,5.077,0.471,7.6c0.696,7.408-0.049,14.882-0.741,22.268 c-1.751,18.7-4.834,37.477-3.438,56.309c0.333,4.494,0.935,8.963,1.91,13.365c0.877,3.961,1.899,8.105,3.629,11.793 c2.635,5.616,7.224,10.05,12.356,13.416c14.317,9.392,31.583,13.86,48.628,13.796c15.98-0.06,36.236-2.885,46.84-16.335 c2.525-3.202,4.839-6.6,6.631-10.27c3.643-7.461,4.65-15.72,4.014-23.93C276.051,290.07,273.878,281.854,271.806,273.703z"/></g><g id="change3_1"><path fill="#f7bfd5" d="M270.209,174.789c-1.904-6.938-4.583-13.644-7.948-19.997c-0.016,0.006-0.032,0.014-0.048,0.02 c-10.833,4.319-22.483,6.86-33.99,8.544c-23.792,3.483-46.413-0.123-69.927-3.405c-4.272,7.551-6.687,16.042-7.049,24.73 c0,0.005,0.001,0.009,0.001,0.014c-0.223,0.505-0.156,1.1,0.426,1.561c8.11,6.414,18.778,7.393,28.672,8.694 c11.502,1.513,23.11,2.721,34.726,2.264c6.403-0.252,12.785-1.04,19.03-2.487c0.315,0.184,0.711,0.25,1.168,0.108 c12.48-3.866,25.644-8.137,34.77-18.009c0.527-0.57,0.51-1.241,0.217-1.766C270.245,174.972,270.234,174.883,270.209,174.789z"/></g><g id="change1_2"><path fill="#b0b1d9" d="M263.368,154.572c-0.515-3.19-3.593-4.72-6.471-5.294c-4.048-0.807-8.308-0.978-12.422-1.175 c-4.417-0.211-8.84-0.256-13.261-0.27c-8.891-0.029-17.782-0.03-26.673-0.043c-4.449-0.007-8.897-0.014-13.346-0.021 c-3.694-0.006-7.47-0.055-11.073,0.881c-0.349,0.091-0.692,0.199-1.035,0.311c-2.333,0.403-4.657,0.852-6.963,1.376 c-3.231,0.734-6.55,1.718-9.332,3.576c-2.517,1.681-5.838,4.834-4.837,8.209c0.979,3.3,5.347,4.754,8.162,5.941 c7.608,3.21,15.726,4.889,23.817,6.365c8.154,1.488,16.365,2.559,24.669,2.195c15.298-0.669,31.042-5.337,43.777-13.974 C261.016,160.865,263.934,158.074,263.368,154.572z"/></g><g id="change4_1"><path fill="#96cfc2" d="M258.68,151.612c-0.54-1.387-1.829-1.617-3.164-1.71c-1.871-0.13-3.747-0.196-5.621-0.234 c-3.667-0.074-7.336-0.005-11.001,0.127c-7.244,0.26-14.484,0.684-21.724,1.047c-8.199,0.411-16.403,0.777-24.597,1.283 c-4.058,0.25-8.119,0.526-12.165,0.927c-3.69,0.366-7.278,0.962-10.698,2.446c-0.348,0.151-0.577,0.485-0.687,0.862 c-0.693,0.139-1.363,0.36-1.97,0.757c-2.587,1.694-1.8,5.174,0.302,6.883c2.24,1.821,5.498,2.164,8.219,2.778 c3.532,0.797,7.072,1.561,10.637,2.194c6.997,1.242,14.095,1.978,21.203,1.505c6.905-0.46,13.841-1.557,20.621-2.925 c6.481-1.307,12.892-3.043,19.04-5.49c2.918-1.161,6.118-2.328,8.692-4.16C257.677,156.544,259.657,154.123,258.68,151.612z"/></g><g id="change5_1"><path fill="#fff0a6" d="M254.817,148.667c-0.001-0.008-0.002-0.018-0.004-0.038c-0.02-0.169-0.035-0.339-0.053-0.508 c-0.057-0.521-0.122-1.042-0.191-1.562c-0.151-1.127-0.328-2.25-0.543-3.367c-0.405-2.105-0.933-4.187-1.581-6.23 c-2.368-7.475-6.318-14.277-11.604-20.064c-2.584-2.829-5.592-5.179-8.275-7.899c-1.364-1.383-2.668-2.939-3.39-4.765 c-0.752-1.902-0.802-4.017-0.507-6.021c0.594-4.035,2.196-7.818,2.576-11.911c0.347-3.742-0.273-7.599-1.856-11.013 c-1.37-2.955-3.814-5.587-6.827-6.896c-3.073-1.335-6.598-1.395-9.871-0.952c-3.193,0.432-6.186,1.396-8.695,3.475 c-2.468,2.046-4.196,4.92-5.248,7.92c-1.118,3.187-1.304,6.496-0.818,9.819c0.523,3.581,1.656,7.103,1.65,10.748 c-0.006,3.52-1.52,6.28-4.408,8.262c-2.679,1.839-5.737,3.019-8.479,4.752c-6.443,4.07-10.529,11.206-13.393,18.066 c-3.145,7.532-4.753,15.718-4.698,23.881c0.013,1.993,0.135,3.981,0.345,5.962c0.075,0.712,0.413,1.139,1.067,1.402 c2.764,1.111,5.693,1.886,8.58,2.591c7.328,1.788,14.868,2.79,22.403,3.071c9.845,0.367,19.749-0.595,29.393-2.582 c6.148-1.267,12.253-3.02,17.95-5.689c1.99-0.932,4.066-1.989,5.806-3.381c0.178-0.077,0.35-0.203,0.508-0.392 c0.282-0.247,0.42-0.526,0.458-0.806C255.769,152.809,255.032,150.313,254.817,148.667z"/></g><g id="change6_1"><path fill="#868cc5" d="M175.32,258.229c-0.547-0.149-1.14-0.161-1.713-0.18c-3.953-0.129-7.889-0.804-11.659-2 c-0.427-0.135-0.877-0.295-1.148-0.651c-0.303-0.398-0.307-0.941-0.298-1.442c0.083-4.452,0.165-8.905,0.248-13.357 c3.341,0.644,6.775,0.803,10.161,0.469c0.776-0.076,1.676-0.265,2.012-0.969c0.38-0.797-0.277-1.771-1.105-2.079 c-0.828-0.308-1.745-0.156-2.623-0.053c-2.287,0.27-4.617,0.181-6.877-0.264c-0.753-0.148-1.551-0.366-2.048-0.952 c-0.434-0.512-0.557-1.21-0.664-1.872c-0.761-4.698-1.521-9.397-2.282-14.095c4.799,1.49,9.908,1.969,14.901,1.399 c0.889-0.102,1.83-0.261,2.498-0.856s0.888-1.774,0.214-2.364c-0.585-0.512-1.475-0.349-2.236-0.187 c-3.261,0.695-6.646,0.804-9.945,0.32c-1.873-0.274-3.813-0.789-5.168-2.111c-2.521-2.459-0.997-9.338-0.454-12.394 c0.349-1.963-2.665-2.742-3.016-0.769c-1.494,8.4-0.122,16.79,1.373,25.084c1.489,8.258,2.71,16.368,1.871,24.775 c-1.583,15.851-8.193,31.381-6.089,47.509c1.217,9.328,5.601,17.6,10.08,25.727c0.967,1.754,3.622,0.132,2.656-1.622 c-2.473-4.488-4.961-9.034-6.833-13.807c1.216,0.37,2.447,0.692,3.698,0.916c3.408,0.612,6.886,0.725,10.322,0.294 c0.834-0.105,1.543-0.682,1.525-1.586c-0.015-0.772-0.747-1.63-1.586-1.525c-2.607,0.327-5.268,0.378-7.879,0.05 c-1.277-0.16-2.544-0.404-3.792-0.716c-0.672-0.168-1.339-0.359-1.999-0.571c-0.283-0.091-0.564-0.186-0.845-0.284 c-0.121-0.042-0.24-0.087-0.36-0.131c-0.079-0.174-0.184-0.334-0.317-0.462c-0.06-0.058-0.124-0.103-0.188-0.148 c-0.429-1.44-0.812-2.896-1.087-4.389c-0.47-2.551-0.658-5.126-0.673-7.707c5.205,1.239,10.576,1.758,15.922,1.517 c1.997-0.09,1.945-3.201-0.06-3.111c-5.174,0.233-10.32-0.259-15.354-1.481c-0.156-0.038-0.302-0.046-0.442-0.043 c0.208-4.176,0.831-8.345,1.604-12.426c0.21-1.109,0.433-2.215,0.66-3.321c2.94,1.257,6.075,1.959,9.284,2.072 c0.815,0.029,1.577-0.778,1.525-1.586c-0.057-0.88-0.713-1.494-1.586-1.525c-0.415-0.015-0.83-0.037-1.244-0.072 c-0.466-0.039-0.523-0.046-0.999-0.116c-0.822-0.12-1.637-0.283-2.442-0.489c-1.426-0.364-2.631-0.803-3.886-1.393 c1.035-4.846,1.978-9.705,2.961-14.561c4.66,1.471,9.505,2.356,14.384,2.627c0.932,0.052,2.088-0.049,2.462-0.904 c0.316-0.721-0.185-1.587-0.879-1.96C175.721,258.359,175.524,258.285,175.32,258.229z"/></g><g id="change7_3"><path fill="#644394" d="M171.176,160.497c-2.161-17.384,4.443-35.454,17.446-47.23c5.945-5.384,13.34-10.625,12.298-19.658 c-0.536-4.645-2.417-9.05-1.335-13.771c0.909-3.965,3.294-7.618,6.605-9.996c7.609-5.467,18.753-2.641,23.336,5.4 c0.574,1.006,2.129,0.1,1.554-0.908c-3.984-6.99-12.825-10.756-20.614-8.552c-7.917,2.241-13.664,10.465-13.006,18.674 c0.405,5.049,2.918,10.045,1.079,15.081c-1.517,4.153-5.153,7.202-8.396,10.013c-3.371,2.922-6.548,5.939-9.281,9.481 c-2.78,3.602-5.117,7.532-6.956,11.694c-4.115,9.312-5.788,19.654-4.53,29.773C169.517,161.631,171.318,161.645,171.176,160.497 L171.176,160.497z"/></g><g id="change7_4"><path fill="#644394" d="M231.869,81.201c1.869,5.381-0.932,10.914-1.132,16.346c-0.188,5.127,1.578,10.029,4.678,14.071 c3.12,4.068,6.778,7.561,9.393,12.021c2.56,4.368,4.364,9.13,5.629,14.023c1.456,5.627,2.197,11.405,2.549,17.199 c0.07,1.151,1.87,1.159,1.8,0c-0.609-10.029-2.359-20.19-6.871-29.257c-2.293-4.608-5.385-8.469-8.769-12.307 c-3.684-4.178-6.459-8.749-6.614-14.474c-0.165-6.071,3.162-12.088,1.073-18.1C233.227,79.635,231.488,80.102,231.869,81.201 L231.869,81.201z"/></g><g id="change7_5"><path fill="#644394" d="M171.078,161.726c16.08,7.725,34.235,6.69,51.542,5.512c1.149-0.078,1.158-1.879,0-1.8 c-16.941,1.153-34.879,2.303-50.633-5.266C170.948,159.672,170.033,161.224,171.078,161.726L171.078,161.726z"/></g><g id="change7_6"><path fill="#644394" d="M237.663,163.814c4.898-1.018,9.63-2.717,14.069-5.022c1.028-0.534,0.119-2.088-0.908-1.554 c-4.305,2.235-8.891,3.854-13.639,4.841C236.051,162.314,236.53,164.049,237.663,163.814L237.663,163.814z"/></g><g id="change7_7"><path fill="#644394" d="M169.207,150.08c-3.278,1.615-7.033,3.574-9.48,6.363c-2.287,2.607-2.294,6.015-0.133,8.721 c2.346,2.937,6.392,4.167,9.782,5.436c3.996,1.495,8.074,2.771,12.209,3.82c4.593,1.165,9.249,2.032,13.946,2.65 c1.145,0.151,1.134-1.651,0-1.8c-9.38-1.234-18.608-3.615-27.415-7.072c-3.345-1.313-9.785-3.828-8.199-8.66 c0.653-1.991,2.607-3.318,4.253-4.445c1.895-1.298,3.884-2.443,5.944-3.458C171.155,151.122,170.244,149.569,169.207,150.08 L169.207,150.08z"/></g><g id="change7_8"><path fill="#644394" d="M205.831,178.125c11.924-0.232,24.033-1.274,35.349-5.28c4.946-1.751,9.725-4.034,14.083-6.966 c2.196-1.477,4.318-3.11,6.249-4.923c1.682-1.579,3.34-3.606,3.544-5.995c0.502-5.859-7.128-6.655-11.217-7.452 c-1.132-0.22-1.616,1.514-0.479,1.736c3.073,0.599,10.862,1.163,9.841,6.036c-0.496,2.365-2.615,4.156-4.365,5.649 c-1.851,1.58-3.824,3.011-5.884,4.306c-8.577,5.391-18.437,8.298-28.404,9.741c-6.197,0.897-12.463,1.225-18.718,1.346 C204.674,176.347,204.67,178.147,205.831,178.125L205.831,178.125z"/></g><g id="change7_9"><path fill="#644394" d="M152.613,186.616c0.642-9.885,1.421-20.3,7.392-28.614c0.677-0.942-0.884-1.842-1.554-0.909 c-6.151,8.565-6.976,19.34-7.638,29.523C150.738,187.773,152.538,187.768,152.613,186.616L152.613,186.616z"/></g><g id="change7_10"><path fill="#644394" d="M151.468,187.484c5.645,4.059,12.677,5.323,19.369,6.575c7.715,1.443,15.488,2.558,23.294,3.368 c1.151,0.119,1.143-1.681,0-1.8c-7.647-0.794-15.259-1.891-22.816-3.304c-6.545-1.224-13.417-2.423-18.939-6.393 C151.434,185.252,150.534,186.813,151.468,187.484L151.468,187.484z"/></g><g id="change7_11"><path fill="#644394" d="M199.04,197.778c2.246,0.466,4.534,0.729,6.828,0.774c0.486,0.01,0.9-0.42,0.9-0.9 c0-0.496-0.412-0.89-0.9-0.9c-2.137-0.042-4.257-0.275-6.349-0.71c-0.475-0.099-0.973,0.139-1.107,0.629 C198.289,197.117,198.562,197.679,199.04,197.778L199.04,197.778z"/></g><g id="change7_12"><path fill="#644394" d="M213.885,198.08c10.516,0.563,21.075-0.891,31.047-4.277c1.091-0.37,0.623-2.11-0.479-1.736 c-9.836,3.339-20.197,4.767-30.569,4.212C212.727,196.218,212.73,198.018,213.885,198.08L213.885,198.08z"/></g><g id="change7_13"><path fill="#644394" d="M251.173,190.368c1.971-0.515,3.683-1.643,5.413-2.678c1.722-1.031,3.454-2.047,5.159-3.106 c3.173-1.972,6.259-4.179,8.584-7.141c0.707-0.901-0.558-2.184-1.273-1.273c-2.238,2.851-5.165,4.961-8.22,6.859 c-1.555,0.966-3.133,1.894-4.704,2.834c-1.735,1.038-3.46,2.253-5.438,2.769C249.574,188.925,250.049,190.661,251.173,190.368 L251.173,190.368z"/></g><g id="change7_14"><path fill="#644394" d="M270.909,176.469c0.205-3.463-1.391-6.691-2.704-9.8c-1.427-3.378-2.911-6.732-4.449-10.061 c-0.485-1.05-2.038-0.137-1.554,0.908c1.432,3.099,2.82,6.219,4.154,9.362c1.281,3.019,2.953,6.224,2.754,9.59 C269.04,177.626,270.84,177.622,270.909,176.469L270.909,176.469z"/></g><g id="change7_15"><path fill="#644394" d="M155.911,341.223c-4.915-4.522-9.63-9.378-12.963-15.216c-3.66-6.41-5.352-13.9-5.928-21.208 c-0.61-7.741,0.278-15.265,2.306-22.74c1.99-7.335,4.455-14.484,5.515-22.042c1.201-8.565,1.065-17.241-0.361-25.769 c-0.191-1.14-1.925-0.656-1.736,0.479c1.305,7.808,1.478,15.795,0.512,23.653c-0.962,7.824-3.467,15.198-5.546,22.762 c-2.07,7.531-3.073,15.138-2.541,22.953c0.494,7.268,2.024,14.738,5.375,21.255c3.42,6.65,8.638,12.126,14.094,17.147 C155.49,343.279,156.766,342.009,155.911,341.223L155.911,341.223z"/></g><g id="change7_16"><path fill="#644394" d="M142.586,228.994c-3.279-7.355-6.364-15.139-5.691-23.349c0.584-7.127,3.825-13.777,8.056-19.44 c2.491-3.334,5.388-6.354,8.489-9.122c0.866-0.773-0.411-2.042-1.273-1.273c-5.63,5.024-10.644,10.981-13.821,17.873 c-3.303,7.165-4.162,14.857-2.332,22.548c1.127,4.736,3.04,9.239,5.016,13.672C141.502,230.958,143.054,230.044,142.586,228.994 L142.586,228.994z"/></g><g id="change7_17"><path fill="#644394" d="M163.087,348.432c13.562,6.137,28.136,9.764,42.995,10.679c1.157,0.071,1.153-1.729,0-1.8 c-14.521-0.894-28.83-4.434-42.086-10.433C162.949,346.404,162.033,347.954,163.087,348.432L163.087,348.432z"/></g><g id="change7_18"><path fill="#644394" d="M213.235,359.895c1.426,0,2.851,0,4.277,0c0.471,0,0.922-0.414,0.9-0.9c-0.022-0.488-0.395-0.9-0.9-0.9 c-1.426,0-2.851,0-4.277,0c-0.471,0-0.922,0.414-0.9,0.9C212.357,359.483,212.73,359.895,213.235,359.895L213.235,359.895z"/></g><g id="change7_19"><path fill="#644394" d="M227.016,359.381c0.202,0.032,0.406,0.063,0.611,0.062c0.197,0,0.393-0.029,0.587-0.059 c0.322-0.05,0.634-0.173,0.922-0.322c0.194-0.1,0.357-0.331,0.414-0.538c0.059-0.215,0.033-0.502-0.091-0.694 c-0.124-0.192-0.308-0.361-0.538-0.414c-0.243-0.055-0.47-0.024-0.694,0.091c-0.052,0.027-0.104,0.051-0.158,0.075 c0.072-0.03,0.143-0.06,0.215-0.091c-0.192,0.081-0.392,0.135-0.599,0.164c0.08-0.011,0.16-0.021,0.239-0.032 c-0.198,0.025-0.398,0.026-0.596,0.001c0.08,0.011,0.16,0.021,0.239,0.032c-0.025-0.003-0.049-0.007-0.074-0.011 c-0.12-0.038-0.239-0.043-0.359-0.016c-0.12,0.005-0.231,0.041-0.335,0.107c-0.187,0.109-0.365,0.323-0.414,0.538 c-0.052,0.23-0.041,0.489,0.091,0.694C226.598,359.152,226.79,359.345,227.016,359.381L227.016,359.381z"/></g><g id="change7_20"><path fill="#644394" d="M238.659,358.233c10.307-2.047,20.381-5.588,29.611-10.63c4.291-2.344,8.108-5.26,11.237-9.036 c2.984-3.601,5.306-7.688,7.005-12.04c1.935-4.959,2.867-10.166,2.924-15.485c0.058-5.461-0.692-10.884-1.43-16.282 c-1.557-11.379-3.113-22.758-4.67-34.137c-0.87-6.359-1.99-12.749-2.207-19.173c-0.212-6.258,0.799-12.416,3.046-18.263 c0.416-1.082-1.324-1.551-1.736-0.479c-1.847,4.806-2.915,9.892-3.109,15.04c-0.208,5.525,0.583,11.019,1.33,16.477 c1.523,11.133,3.046,22.267,4.569,33.4c1.482,10.832,3.942,22.306,1.247,33.14c-2.287,9.195-7.695,18.03-15.715,23.267 c-4.828,3.152-10.237,5.569-15.613,7.612c-5.509,2.093-11.187,3.706-16.966,4.854 C237.045,356.722,237.526,358.458,238.659,358.233L238.659,358.233z"/></g><g id="change7_21"><path fill="#644394" d="M285.248,219.803c1.524-9.489,2.844-19.518-0.007-28.898c-2.219-7.304-6.981-14.129-14.121-17.275 c-1.05-0.463-1.967,1.088-0.908,1.554c6.853,3.019,11.348,9.519,13.401,16.557c2.615,8.965,1.354,18.535-0.1,27.583 C283.331,220.458,285.065,220.946,285.248,219.803L285.248,219.803z"/></g><g id="change7_22"><path fill="#644394" d="M162.006,326.184c-4.166-6.725-7.026-14.191-8.36-21.993c-1.391-8.137-0.994-16.468-0.009-24.627 c1.978-16.386,6.176-32.54,4.498-49.16c-0.967-9.574-3.141-19.044-2.841-28.714c0.036-1.159-1.764-1.157-1.8,0 c-0.27,8.699,1.459,17.247,2.517,25.841c1.037,8.425,0.859,16.762-0.178,25.178c-2.022,16.415-6.483,32.874-4.291,49.515 c1.162,8.817,4.228,17.312,8.909,24.869C161.06,328.075,162.618,327.173,162.006,326.184L162.006,326.184z"/></g><g id="change7_23"><path fill="#644394" d="M259.509,341.082c11.343-7.017,19.297-19.031,21.603-32.147c0.654-3.716,0.859-7.49,0.582-11.253 c-0.085-1.148-1.885-1.158-1.8,0c0.942,12.792-3.884,25.705-12.753,34.94c-2.55,2.655-5.411,4.969-8.541,6.905 C257.617,340.136,258.52,341.694,259.509,341.082L259.509,341.082z"/></g><g id="change7_24"><path fill="#644394" d="M281.145,292.461c0-1.109,0-2.218,0-3.327c0-0.471-0.414-0.922-0.9-0.9c-0.488,0.022-0.9,0.395-0.9,0.9 c0,1.109,0,2.218,0,3.327c0,0.471,0.414,0.922,0.9,0.9C280.732,293.339,281.145,292.965,281.145,292.461L281.145,292.461z"/></g><g id="change7_25"><path fill="#644394" d="M268.66,309.782c0.524-0.762,0.801-1.669,0.859-2.588c0.014-0.222-0.11-0.483-0.264-0.636 c-0.156-0.156-0.412-0.274-0.636-0.264c-0.513,0.023-0.869,0.396-0.9,0.9c-0.006,0.098-0.015,0.196-0.028,0.293 c0.011-0.08,0.021-0.159,0.032-0.239c-0.051,0.379-0.152,0.747-0.3,1.099c0.03-0.072,0.06-0.143,0.091-0.215 c-0.112,0.26-0.248,0.508-0.408,0.741c-0.127,0.184-0.148,0.485-0.091,0.694c0.057,0.209,0.219,0.435,0.414,0.538 c0.209,0.11,0.462,0.166,0.694,0.091C268.354,310.12,268.521,309.984,268.66,309.782L268.66,309.782z"/></g><g id="change7_26"><path fill="#644394" d="M244.13,347.714c1.558,0.306,3.239-0.007,4.516-0.977c0.195-0.148,0.346-0.292,0.414-0.538 c0.059-0.215,0.033-0.502-0.091-0.693c-0.238-0.369-0.83-0.628-1.231-0.323c-0.265,0.201-0.547,0.375-0.848,0.517 c-0.038,0.018-0.075,0.035-0.113,0.052c0.12-0.05,0.134-0.056,0.043-0.019c-0.058,0.021-0.116,0.045-0.175,0.065 c-0.157,0.055-0.316,0.102-0.478,0.14c-0.081,0.019-0.162,0.036-0.244,0.052c-0.041,0.008-0.082,0.015-0.123,0.021 c-0.1,0.015-0.082,0.013,0.054-0.006c-0.143-0.003-0.291,0.028-0.434,0.032c-0.166,0.005-0.332,0.001-0.497-0.012 c-0.041-0.003-0.083-0.007-0.124-0.011c-0.1-0.012-0.082-0.009,0.054,0.009c-0.053,0.019-0.19-0.032-0.245-0.043 c-0.461-0.091-0.994,0.13-1.107,0.629C243.4,347.053,243.636,347.617,244.13,347.714L244.13,347.714z"/></g><g id="change7_27"><path fill="#644394" d="M279.334,218.545c0.704-5.213,1.848-10.544,1.146-15.811c-0.655-4.914-2.563-9.542-4.79-13.935 c-0.524-1.033-2.077-0.123-1.554,0.908c2.145,4.232,4.009,8.723,4.602,13.467c0.619,4.955-0.477,9.993-1.139,14.892 C277.445,219.199,279.179,219.69,279.334,218.545L279.334,218.545z"/></g><g id="change7_28"><path fill="#644394" d="M270.666,183.614c0.316,0.476,0.631,0.952,0.947,1.428c0.13,0.196,0.307,0.35,0.538,0.414 c0.215,0.059,0.502,0.033,0.693-0.091c0.192-0.124,0.361-0.308,0.414-0.538c0.052-0.229,0.043-0.492-0.091-0.693 c-0.316-0.476-0.631-0.952-0.947-1.428c-0.13-0.196-0.307-0.35-0.538-0.414c-0.215-0.059-0.502-0.033-0.694,0.091 c-0.192,0.124-0.361,0.308-0.414,0.538C270.523,183.149,270.532,183.413,270.666,183.614L270.666,183.614z"/></g><g id="change7_29"><path fill="#644394" d="M271.737,200.262c-0.008,1.532,0.229,3.074,0.706,4.531c0.146,0.447,0.629,0.783,1.107,0.629 c0.446-0.144,0.786-0.628,0.629-1.107c-0.222-0.679-0.394-1.373-0.507-2.078c-0.015-0.093-0.029-0.186-0.042-0.28 c0.022,0.163-0.001-0.02-0.008-0.081c-0.02-0.174-0.036-0.348-0.049-0.523c-0.027-0.363-0.038-0.726-0.036-1.09 c0.002-0.471-0.416-0.922-0.9-0.9C272.147,199.384,271.74,199.758,271.737,200.262L271.737,200.262z"/></g><g id="change7_30"><path fill="#644394" d="M147.208,221.899c-4.929-5.961-4.405-14.195-3.9-21.424c0.081-1.156-1.72-1.151-1.8,0 c-0.545,7.807-0.86,16.302,4.427,22.697C146.674,224.065,147.942,222.786,147.208,221.899L147.208,221.899z"/></g><g id="change7_31"><path fill="#644394" d="M145.868,194.79c0.127-0.54,0.298-1.068,0.512-1.58c-0.03,0.072-0.06,0.143-0.091,0.215 c0.189-0.447,0.41-0.879,0.662-1.294c0.244-0.403,0.102-1.007-0.323-1.231c-0.437-0.231-0.971-0.107-1.231,0.323 c-0.577,0.952-1.009,2.005-1.264,3.089c-0.107,0.457,0.142,0.996,0.629,1.107C145.222,195.524,145.753,195.281,145.868,194.79 L145.868,194.79z"/></g><g id="change7_32"><path fill="#644394" d="M150.892,209.529c-0.113-0.279-0.191-0.569-0.234-0.866c0.011,0.08,0.021,0.16,0.032,0.239 c-0.043-0.321-0.044-0.645-0.002-0.966c-0.011,0.08-0.021,0.16-0.032,0.239c0.003-0.023,0.006-0.046,0.01-0.069 c0.038-0.12,0.043-0.239,0.016-0.359c-0.005-0.12-0.041-0.231-0.107-0.335c-0.109-0.187-0.323-0.365-0.538-0.414 c-0.23-0.052-0.489-0.041-0.693,0.091c-0.183,0.118-0.38,0.312-0.414,0.538c-0.061,0.403-0.097,0.799-0.048,1.205 c0.048,0.405,0.121,0.795,0.275,1.174c0.028,0.117,0.082,0.219,0.161,0.306c0.063,0.098,0.148,0.175,0.253,0.232 c0.193,0.113,0.477,0.161,0.694,0.091c0.218-0.07,0.428-0.205,0.538-0.414C150.907,210.023,150.981,209.749,150.892,209.529 L150.892,209.529z"/></g><g id="change7_33"><path fill="#644394" d="M163.789,337.542c-12.143-6.225-20.71-18.655-22.066-32.256c-0.114-1.142-1.915-1.154-1.8,0 c1.417,14.223,10.219,27.279,22.958,33.81C163.91,339.624,164.822,338.071,163.789,337.542L163.789,337.542z"/></g><g id="change7_34"><path fill="#644394" d="M142.365,295.073c0.099-0.872,0.003-1.779-0.258-2.616c-0.069-0.221-0.211-0.42-0.414-0.538 c-0.193-0.113-0.477-0.161-0.694-0.091c-0.451,0.146-0.779,0.626-0.629,1.107c0.098,0.312,0.169,0.631,0.214,0.955 c-0.011-0.08-0.021-0.16-0.032-0.239c0.062,0.472,0.066,0.948,0.012,1.422c-0.024,0.214,0.118,0.491,0.264,0.636 c0.156,0.156,0.412,0.274,0.636,0.264c0.233-0.01,0.474-0.087,0.636-0.264c0.047-0.061,0.094-0.121,0.141-0.182 C142.323,295.387,142.364,295.236,142.365,295.073L142.365,295.073z"/></g><g id="change7_35"><path fill="#644394" d="M149.159,316.7c0.18,1.118,0.699,2.146,1.419,3.011c0.139,0.168,0.427,0.264,0.636,0.264 c0.221,0,0.484-0.098,0.636-0.264c0.157-0.172,0.274-0.397,0.264-0.636c-0.011-0.251-0.103-0.444-0.264-0.636 c-0.047-0.056-0.093-0.114-0.138-0.172c0.047,0.061,0.094,0.121,0.141,0.182c-0.277-0.363-0.506-0.756-0.687-1.176 c0.03,0.072,0.06,0.143,0.091,0.215c-0.171-0.407-0.293-0.831-0.363-1.267c-0.034-0.209-0.239-0.436-0.414-0.538 c-0.193-0.113-0.477-0.161-0.694-0.091c-0.218,0.07-0.428,0.205-0.538,0.414C149.13,316.233,149.119,316.448,149.159,316.7 L149.159,316.7z"/></g><g id="change7_36"><path fill="#644394" d="M178.371,157.536c-1.556-13.557,3.556-27.442,13.571-36.72c0.852-0.789-0.424-2.059-1.273-1.273 c-10.325,9.564-15.704,24.005-14.098,37.993C176.701,158.673,178.503,158.686,178.371,157.536L178.371,157.536z"/></g><g id="change7_37"><path fill="#644394" d="M196.87,115.225c0.643-0.663,1.286-1.327,1.929-1.99c0.162-0.167,0.264-0.402,0.264-0.636 c0-0.221-0.098-0.484-0.264-0.636c-0.172-0.157-0.397-0.274-0.636-0.264c-0.237,0.011-0.468,0.09-0.636,0.264 c-0.643,0.663-1.286,1.327-1.929,1.99c-0.162,0.167-0.264,0.402-0.264,0.636c0,0.221,0.098,0.484,0.264,0.636 c0.172,0.157,0.397,0.274,0.636,0.264C196.471,115.478,196.702,115.399,196.87,115.225L196.87,115.225z"/></g><g id="change7_38"><path fill="#644394" d="M189.734,149.479c0.017,0.123-0.02-0.167-0.023-0.2c-0.011-0.098-0.02-0.196-0.029-0.294 c-0.019-0.212-0.033-0.425-0.042-0.638c-0.017-0.41-0.017-0.82,0.002-1.23c0.039-0.872,0.126-1.479,0.326-2.341 c0.106-0.458-0.141-0.996-0.629-1.107c-0.46-0.105-0.993,0.138-1.107,0.629c-0.434,1.869-0.497,3.764-0.234,5.661 c0.065,0.468,0.687,0.765,1.107,0.629C189.619,150.42,189.803,149.981,189.734,149.479L189.734,149.479z"/></g><g id="change7_39"><path fill="#644394" d="M192.308,133.962c-0.006-0.029-0.011-0.058-0.015-0.087c0.011,0.08,0.021,0.16,0.032,0.239 c-0.013-0.103-0.012-0.206,0-0.309c-0.011,0.08-0.021,0.16-0.032,0.239c0.015-0.108,0.043-0.212,0.085-0.313 c-0.03,0.072-0.06,0.143-0.091,0.215c0.027-0.064,0.06-0.124,0.097-0.182c0.066-0.103,0.101-0.215,0.107-0.335 c0.027-0.12,0.021-0.239-0.016-0.359c-0.028-0.117-0.082-0.219-0.161-0.306c-0.063-0.098-0.148-0.175-0.253-0.232 c-0.072-0.03-0.143-0.06-0.215-0.091c-0.16-0.043-0.319-0.043-0.479,0c-0.072,0.03-0.143,0.06-0.215,0.091 c-0.135,0.08-0.243,0.188-0.323,0.323c-0.083,0.13-0.139,0.275-0.196,0.418c-0.03,0.075-0.053,0.154-0.067,0.234 c-0.027,0.15-0.052,0.306-0.052,0.46c0,0.042,0.003,0.084,0.007,0.125c0.013,0.116,0.026,0.234,0.05,0.349 c0.028,0.117,0.082,0.219,0.161,0.306c0.063,0.098,0.148,0.175,0.253,0.232c0.103,0.066,0.215,0.101,0.335,0.107 c0.12,0.027,0.239,0.021,0.359-0.016c0.072-0.03,0.143-0.06,0.215-0.091c0.135-0.08,0.243-0.188,0.323-0.323 c0.03-0.072,0.06-0.143,0.091-0.215C192.351,134.281,192.351,134.122,192.308,133.962L192.308,133.962z"/></g><g id="change7_40"><path fill="#644394" d="M215.548,71.584c7.501,1.395,10.873,9.081,11.553,15.938c0.113,1.142,1.915,1.154,1.8,0 c-0.41-4.133-1.474-8.34-3.96-11.742c-2.161-2.957-5.269-5.254-8.915-5.932C214.894,69.637,214.409,71.372,215.548,71.584 L215.548,71.584z"/></g><g id="change7_41"><path fill="#644394" d="M226.711,93.391c0,0.891,0,1.782,0,2.673c0,0.471,0.414,0.922,0.9,0.9c0.488-0.022,0.9-0.395,0.9-0.9 c0-0.891,0-1.782,0-2.673c0-0.471-0.414-0.922-0.9-0.9C227.123,92.513,226.711,92.887,226.711,93.391L226.711,93.391z"/></g><g id="change7_42"><path fill="#644394" d="M228.935,107.394c0.059,0.059,0.119,0.119,0.178,0.178c0.082,0.088,0.178,0.15,0.29,0.186 c0.107,0.056,0.223,0.082,0.347,0.078c0.124,0.005,0.239-0.021,0.347-0.078c0.112-0.036,0.208-0.098,0.29-0.186 c0.047-0.061,0.094-0.121,0.141-0.182c0.081-0.14,0.122-0.292,0.123-0.454c-0.011-0.08-0.021-0.16-0.032-0.239 c-0.043-0.152-0.12-0.285-0.231-0.397c-0.059-0.059-0.119-0.119-0.178-0.178c-0.082-0.088-0.178-0.15-0.29-0.186 c-0.107-0.056-0.223-0.082-0.347-0.078c-0.124-0.005-0.24,0.021-0.347,0.078c-0.112,0.036-0.208,0.098-0.29,0.186 c-0.047,0.061-0.094,0.121-0.141,0.182c-0.081,0.14-0.122,0.292-0.123,0.454c0.011,0.08,0.021,0.16,0.032,0.239 C228.746,107.149,228.824,107.282,228.935,107.394L228.935,107.394z"/></g><g id="change7_43"><path fill="#644394" d="M250.896,152.682c-1.02-6.872-3.205-13.515-6.427-19.668c-0.538-1.027-2.092-0.118-1.554,0.908 c3.152,6.018,5.248,12.519,6.246,19.238C249.33,154.303,251.065,153.817,250.896,152.682L250.896,152.682z"/></g><g id="change7_44"><path fill="#644394" d="M158.352,185.63c4.206,1.695,8.448,3.298,12.724,4.808c1.094,0.386,1.565-1.352,0.479-1.736 c-4.276-1.51-8.518-3.113-12.724-4.808c-0.454-0.183-0.984,0.2-1.107,0.629C157.576,185.035,157.903,185.45,158.352,185.63 L158.352,185.63z"/></g><g id="change7_45"><path fill="#644394" d="M179.559,192.034c0.956,0.537,2.044,0.824,3.141,0.82c0.471-0.002,0.922-0.413,0.9-0.9 c-0.022-0.486-0.395-0.902-0.9-0.9c-0.254,0.001-0.507-0.015-0.759-0.048c0.08,0.011,0.16,0.021,0.239,0.032 c-0.473-0.066-0.932-0.192-1.373-0.376c0.072,0.03,0.143,0.06,0.215,0.091c-0.19-0.081-0.375-0.172-0.555-0.273 c-0.411-0.231-1.002-0.112-1.231,0.323C179.012,191.228,179.121,191.788,179.559,192.034L179.559,192.034z"/></g><g id="change7_46"><path fill="#644394" d="M171.906,185.631c0.362,0.317,0.767,0.553,1.23,0.69c0.227,0.067,0.468,0.1,0.703,0.118 c0.245,0.019,0.481-0.014,0.724-0.048c0.207-0.029,0.438-0.242,0.538-0.414c0.113-0.193,0.161-0.477,0.091-0.694 c-0.07-0.218-0.205-0.428-0.414-0.538c-0.072-0.03-0.143-0.06-0.215-0.091c-0.16-0.043-0.319-0.043-0.479,0 c-0.009,0.001-0.019,0.003-0.028,0.004c0.08-0.011,0.16-0.021,0.239-0.032c-0.19,0.024-0.38,0.024-0.57,0 c0.08,0.011,0.16,0.021,0.239,0.032c-0.199-0.027-0.392-0.08-0.579-0.156c0.072,0.03,0.143,0.06,0.215,0.091 c-0.176-0.075-0.341-0.17-0.493-0.286c0.061,0.047,0.121,0.094,0.182,0.141c-0.038-0.029-0.074-0.06-0.11-0.091 c-0.181-0.159-0.39-0.264-0.636-0.264c-0.221,0-0.484,0.098-0.636,0.264c-0.157,0.172-0.274,0.397-0.264,0.636 C171.652,185.224,171.727,185.475,171.906,185.631L171.906,185.631z"/></g><g id="change7_47"><path fill="#644394" d="M244.14,185.471c5.724-0.645,10.743-3.502,15.615-6.386c0.996-0.59,0.092-2.146-0.909-1.554 c-4.562,2.7-9.334,5.535-14.706,6.14C243.002,183.799,242.989,185.601,244.14,185.471L244.14,185.471z"/></g><g id="change7_49"><path fill="#644394" d="M263.374,175.876c0.117,0.03,0.241,0.043,0.361,0.053c0.045,0.004,0.09,0.004,0.135,0 c0.161-0.014,0.332-0.031,0.484-0.093c0.103-0.042,0.221-0.084,0.32-0.143c0.101-0.06,0.194-0.138,0.283-0.211 c0.035-0.029,0.067-0.06,0.097-0.095c0.076-0.089,0.152-0.182,0.213-0.282c0.066-0.103,0.101-0.215,0.107-0.335 c0.027-0.12,0.021-0.239-0.016-0.359c-0.028-0.117-0.082-0.219-0.161-0.306c-0.063-0.098-0.148-0.175-0.253-0.232 c-0.072-0.03-0.143-0.06-0.215-0.091c-0.16-0.043-0.319-0.043-0.479,0c-0.072,0.03-0.143,0.06-0.215,0.091 c-0.135,0.08-0.243,0.188-0.323,0.323c-0.015,0.025-0.031,0.048-0.049,0.072c0.047-0.061,0.094-0.121,0.141-0.182 c-0.041,0.052-0.087,0.098-0.139,0.139c0.061-0.047,0.121-0.094,0.182-0.141c-0.056,0.043-0.116,0.078-0.181,0.106 c0.072-0.03,0.143-0.06,0.215-0.091c-0.069,0.029-0.14,0.048-0.214,0.059c0.08-0.011,0.159-0.021,0.239-0.032 c-0.07,0.009-0.139,0.009-0.209,0c0.08,0.011,0.159,0.021,0.239,0.032c-0.029-0.004-0.057-0.01-0.085-0.017 c-0.12-0.038-0.239-0.043-0.359-0.016c-0.12,0.005-0.231,0.041-0.335,0.107c-0.105,0.057-0.189,0.134-0.253,0.232 c-0.08,0.087-0.133,0.189-0.161,0.306c-0.011,0.08-0.021,0.16-0.032,0.239c0.001,0.162,0.041,0.314,0.123,0.454 C262.962,175.658,263.143,175.817,263.374,175.876L263.374,175.876z"/></g><g id="change7_1"><path fill="#644394" d="M176.693,343.19c14.045,7.667,30.396,10.757,46.266,8.668c1.132-0.149,1.147-1.951,0-1.8 c-15.567,2.049-31.571-0.896-45.358-8.422C176.584,341.08,175.675,342.634,176.693,343.19L176.693,343.19z"/></g><g id="change7_50"><path fill="#644394" d="M232.245,351.103c0.119,0,0.238,0,0.356,0c0.124,0.005,0.239-0.021,0.347-0.078 c0.112-0.036,0.208-0.098,0.29-0.186c0.088-0.082,0.15-0.178,0.186-0.29c0.056-0.107,0.082-0.223,0.078-0.347 c-0.011-0.08-0.021-0.16-0.032-0.239c-0.043-0.152-0.12-0.285-0.231-0.397c-0.061-0.047-0.121-0.094-0.182-0.141 c-0.14-0.081-0.292-0.122-0.454-0.123c-0.119,0-0.238,0-0.356,0c-0.124-0.005-0.239,0.021-0.347,0.078 c-0.112,0.036-0.208,0.098-0.29,0.186c-0.088,0.082-0.15,0.178-0.186,0.29c-0.056,0.107-0.082,0.223-0.078,0.347 c0.011,0.08,0.021,0.159,0.032,0.239c0.043,0.152,0.12,0.285,0.231,0.397c0.061,0.047,0.121,0.094,0.182,0.141 C231.931,351.062,232.082,351.103,232.245,351.103L232.245,351.103z"/></g><g id="change7_51"><path fill="#644394" d="M178.696,203.397c8.844,2.131,17.967,1.913,26.994,1.636c1.156-0.035,1.161-1.836,0-1.8 c-8.863,0.272-17.831,0.521-26.516-1.571C178.049,201.39,177.568,203.125,178.696,203.397L178.696,203.397z"/></g><g id="change7_48"><path fill="#644394" d="M213.637,205.497c0.607,0.241,1.279,0.258,1.914,0.135c0.212-0.041,0.432-0.233,0.538-0.414 c0.113-0.193,0.161-0.477,0.091-0.694c-0.07-0.218-0.205-0.428-0.414-0.538c-0.072-0.03-0.143-0.06-0.215-0.091 c-0.16-0.043-0.319-0.043-0.479,0c-0.05,0.01-0.101,0.018-0.152,0.025c0.08-0.011,0.16-0.021,0.239-0.032 c-0.221,0.029-0.444,0.029-0.665,0.001c0.08,0.011,0.16,0.021,0.239,0.032c-0.213-0.029-0.419-0.082-0.619-0.162 c-0.12-0.038-0.239-0.043-0.359-0.016c-0.12,0.005-0.231,0.041-0.335,0.107c-0.187,0.109-0.365,0.323-0.414,0.538 c-0.052,0.23-0.041,0.489,0.091,0.694c0.047,0.061,0.094,0.121,0.141,0.182C213.352,205.377,213.484,205.455,213.637,205.497 L213.637,205.497z"/></g><g id="change7_2"><path fill="#644394" d="M220.304,204.964c0.119,0,0.238,0,0.356,0c0.124,0.005,0.239-0.021,0.347-0.077 c0.112-0.036,0.208-0.098,0.29-0.186c0.088-0.082,0.15-0.178,0.186-0.29c0.056-0.107,0.082-0.223,0.078-0.347 c-0.011-0.08-0.021-0.16-0.032-0.239c-0.043-0.152-0.12-0.285-0.231-0.397c-0.061-0.047-0.121-0.094-0.182-0.141 c-0.14-0.081-0.292-0.122-0.454-0.123c-0.119,0-0.238,0-0.356,0c-0.124-0.005-0.24,0.021-0.347,0.078 c-0.112,0.036-0.208,0.098-0.29,0.186c-0.088,0.082-0.15,0.178-0.186,0.29c-0.056,0.107-0.082,0.223-0.078,0.347 c0.011,0.08,0.021,0.16,0.032,0.239c0.043,0.152,0.12,0.285,0.231,0.397c0.061,0.047,0.121,0.094,0.182,0.141 C219.99,204.923,220.142,204.964,220.304,204.964L220.304,204.964z"/></g></svg>